<?xml version="1.0" encoding="UTF-8"?>
<svg width="3871px" height="2367px" viewBox="0 0 3871 2367" version="1.1" xmlns="http://www.w3.org/2000/svg" xmlns:xlink="http://www.w3.org/1999/xlink">
    <!-- Generator: Sketch 57.1 (83088) - https://sketch.com -->
    <title>composition-3</title>
    <desc>Created with Sketch.</desc>
    <g id="composition-3" stroke="none" stroke-width="1" fill="none" fill-rule="evenodd">
        <rect fill="#D5F1E5" x="0" y="0" width="3871" height="2367"></rect>
        <polygon id="Polygon" fill="#FFFFFF" points="1372 238 2318 1184 1372 2130 426 1184"></polygon>
        <g id="Character/ice-cream" transform="translate(426.000000, 51.000000)">
            <path d="M1599.04652,439.697445 C1610.72986,438.447098 1612.39891,454.306291 1613.99275,461.536481 C1618.49488,458.692344 1622.50274,461.411267 1623.52172,454.769582 C1637.76594,469.705772 1649.17349,486.849299 1661.82209,503.075189 C1673.95313,518.642813 1692.91617,531.024647 1703.4104,547.390061 C1712.31797,561.283401 1697.62246,582.37831 1695.80477,597.194653 C1693.75607,613.890989 1698.11136,633.000369 1709.50637,645.729223 C1714.83766,651.682233 1721.35447,655.817859 1729.2323,657.417015 C1737.06716,659.007227 1744.51878,654.408312 1751.41704,655.386766 C1757.14051,656.198866 1757.39123,659.985682 1759.388,665.611349 C1762.12438,673.329871 1765.6129,680.617301 1772.0742,686.039049 C1779.29659,692.094019 1787.05445,693.843432 1792.56302,701.980525 C1797.37139,709.080135 1800.09702,715.956149 1807.55401,720.885986 C1817.50384,727.463276 1833.46545,729.450594 1832.38738,744.808933 C1834.09762,743.449472 1835.80785,742.09001 1837.51988,740.728759 C1841.48477,753.484445 1846.94141,765.834081 1852.76875,777.827752 C1855.49976,783.448053 1856.90198,786.433502 1856.76229,792.687025 C1856.66738,796.806552 1854.41094,799.922581 1856.85004,803.909739 C1860.75404,810.292054 1871.19096,809.426291 1875.95635,814.586879 C1880.84172,819.878047 1875.77189,827.056362 1881.41657,831.667799 C1879.03836,832.399404 1872.44812,837.726347 1874.92662,840.962224 C1878.49037,845.614802 1878.75899,839.241432 1881.25719,840.008812 C1886.99499,841.767168 1885.78439,848.932962 1890.25966,850.880927 C1891.17977,851.281685 1891.10883,846.987344 1891.06066,845.881786 L1891.05855,845.839349 L1892.7723,849.205084 C1922.80818,907.905139 1958.50964,963.586666 1986.72548,1023.1675 L1988.34491,1026.60923 C2039.94752,1137.00467 2101.29401,1244.49337 2169.1376,1345.75001 C2185.14041,1369.63539 2202.70124,1393.36157 2217.49882,1417.93026 C2232.36625,1442.62059 2250.8977,1464.50435 2267.34284,1488.11426 C2284.25897,1512.40033 2299.74423,1537.68095 2316.79646,1561.8579 C2330.39777,1581.14079 2347.02021,1601.66508 2346.80078,1626.52892 C2346.69786,1637.57812 2345.09328,1649.78287 2334.45041,1655.72157 C2334.19432,1651.16558 2327.30502,1656.20454 2325.66283,1657.32251 C2318.55326,1662.16291 2322.41965,1661.62807 2314.75671,1659.9359 C2302.31943,1657.18836 2291.69984,1660.9072 2280.19559,1653.83263 C2255.79381,1638.82847 2231.74483,1623.40216 2206.9043,1609.08488 C2153.21538,1578.14282 2100.06192,1546.45842 2050.2573,1509.47748 C1963.19278,1444.82972 1868.59964,1386.89876 1788.58739,1313.36083 C1708.63424,1239.87835 1624.72874,1166.97543 1529.85265,1113.23198 C1523.49164,1109.62941 1505.26462,1104.22376 1506.94442,1095.63053 C1508.41827,1088.10162 1524.81147,1077.54432 1530.56002,1072.33007 C1550.51518,1054.23492 1571.2977,1037.11107 1590.54548,1018.2396 C1626.07902,983.401606 1661.34931,944.953884 1689.85207,904.078808 C1703.71664,884.193104 1710.79218,862.076809 1718.88671,839.468605 C1726.03031,819.51135 1732.63487,794.942659 1721.03928,775.198267 C1715.67039,766.05231 1708.25996,762.342411 1697.89287,763.036452 C1689.31303,763.610645 1689.69806,765.369002 1686.29729,756.260609 C1682.63505,746.456386 1679.65691,735.079839 1669.83603,729.404086 C1659.66235,723.522626 1652.73186,729.794037 1644.49228,735.680864 C1635.01344,721.982499 1623.38562,698.281359 1604.27573,696.970194 C1584.32236,695.601788 1572.99003,720.270651 1566.09893,735.108459 C1545.72472,778.981506 1519.21515,819.965697 1490.70522,859.035908 C1459.80275,901.386716 1428.20903,944.46734 1394.16008,984.346074 C1386.95022,992.789046 1378.76615,1005.11006 1368.6086,1010.2313 C1358.44684,1015.35867 1349.97153,1010.78907 1341.38833,1004.94949 L1340.7362,1004.50367 C1319.98055,990.256154 1299.79616,975.624054 1278.18807,962.580377 C1254.2537,948.130731 1229.64778,934.895657 1205.23705,921.283153 C1194.46882,915.278267 1184.25037,908.046289 1173.15263,902.653162 C1162.8142,897.626731 1151.5535,895.138559 1140.96973,890.739985 C1179.83599,879.143419 1220.77424,894.335403 1257.56136,906.384526 C1276.65513,912.63805 1296.62103,919.149156 1317.00599,917.467716 C1334.63665,916.015239 1350.63588,906.56698 1364.58103,896.249382 C1389.79047,877.597926 1391.76933,849.582284 1383.54944,821.266129 C1374.09031,788.674825 1359.62224,757.33029 1348.69105,725.184389 C1343.71972,710.563021 1340.29566,695.032961 1351.61188,682.398911 C1361.73899,671.093915 1374.84425,669.702255 1388.66762,674.152703 C1422.1829,684.946113 1451.91238,695.079469 1487.83811,694.054506 C1515.92719,693.254928 1551.65414,685.277035 1570.57779,662.432713 C1580.95024,649.911356 1581.34601,632.69449 1581.3872,617.162641 C1581.43914,598.756245 1580.27868,580.244313 1577.70527,562.022161 C1573.1118,529.507774 1561.19566,496.950456 1576.1383,465.380537 C1579.64115,457.976838 1589.39577,440.731351 1599.04652,439.697445 Z M1891.05692,845.801274 L1891.05855,845.839349 L1891.04584,845.815144 L1891.04584,845.815144 C1891.03778,845.550183 1891.04596,845.580473 1891.05692,845.801274 Z M728.540134,693.115852 C737.321731,680.957476 761.352948,652.646487 779.70101,658.841013 C782.904697,659.923414 785.220056,663.120932 787.332063,665.500439 C788.828663,667.446986 790.312776,669.40063 791.786186,671.364922 C792.70127,673.946713 794.344141,674.707943 796.716581,673.650384 C803.150711,682.568656 812.23061,689.302608 815.93019,700.256148 C819.59231,711.108545 829.425935,721.632905 835.225036,731.587442 C839.711267,739.286683 849.82586,759.839644 849.051695,769.467686 L849.051695,794.040149 C848.138395,803.591891 830.298249,820.677394 824.024661,827.138084 C808.446824,843.186005 791.525753,845.239283 768.439945,843.191594 C748.882473,841.456204 723.552658,834.931635 710.31337,819.37523 C697.607435,804.448747 697.787598,781.315538 699.667712,762.93247 C702.293451,737.26183 713.545597,713.876652 728.540134,693.115852 Z M788.7145,697.189937 C785.134434,690.53406 777.300029,688.889166 770.416384,689.678786 C763.536307,690.466632 755.639469,691.045095 749.330205,694.116629 C743.504347,696.955713 740.555742,701.925884 733.293934,700.256148 C736.169403,705.217447 731.016034,708.083147 730.273978,712.552929 C729.31965,718.294976 731.16944,723.44259 734.959994,727.800583 C742.806885,736.825321 754.528168,736.649653 765.434259,737.529769 C774.654669,738.273254 785.996004,739.801036 791.413374,748.44782 C794.907818,754.023071 791.738024,758.040374 793.375543,763.640467 C794.579601,767.766011 799.617023,770.136646 801.820004,773.678402 C809.199542,762.808261 808.940893,739.520676 804.440391,727.896402 C802.314114,722.406324 798.293451,715.257156 795.107603,710.434263 C794.065869,708.855023 791.604239,706.972355 790.949589,705.668151 C789.816882,703.416403 789.95245,699.487821 788.7145,697.189937 Z" id="Combined-Shape" fill="#FF5678"></path>
            <g id="Ink" stroke-width="1" transform="translate(574.907376, 140.079224)" fill="#000000">
                <path d="M1074.07003,2007.0499 C1087.42213,2001.82521 1103.87929,2004.26507 1117.87708,2004.5171 C1135.45034,2004.83348 1153.0719,2006.1687 1170.59329,2007.54145 C1204.24094,2010.17972 1237.72046,2009.06435 1271.39673,2012.21383 C1288.11681,2013.77605 1304.84763,2015.22031 1321.58024,2016.64669 C1336.22909,2017.89432 1353.24072,2021.78201 1367.86633,2018.98466 C1373.90473,2017.82997 1390.20091,2012.14412 1387.18171,2003.29449 C1384.85113,1996.46646 1366.50339,1992.25703 1360.52759,1990.31408 C1346.46719,1985.74001 1331.9507,1982.46184 1317.73648,1978.3829 C1310.43709,1976.2898 1303.16632,1974.03584 1295.48059,1974.76511 C1288.95747,1975.38178 1282.08556,1980.25435 1275.4748,1979.69309 C1265.69995,1978.86551 1260.66318,1966.58041 1253.49257,1961.16267 C1242.07755,1952.53469 1233.61377,1957.1445 1224.86202,1966.6537 C1218.39077,1973.68371 1212.22716,1984.32078 1201.60987,1984.94996 C1188.10216,1985.75074 1185.47466,1974.16096 1191.43437,1964.33181 C1196.92545,1955.27841 1211.87301,1945.99622 1212.67432,1934.71031 C1213.18229,1927.57662 1201.78158,1908.49209 1195.22089,1905.77697 C1184.18685,1901.21363 1168.59181,1913.29674 1158.61664,1917.00568 C1141.19541,1923.4798 1123.41288,1929.21213 1105.77345,1935.06064 C1093.70916,1939.05737 1075.80679,1939.41307 1073.52808,1953.56068 C1070.67701,1971.27424 1074.15052,1989.26127 1074.07003,2007.0499 M383.61887,1734.73835 C387.126368,1726.96119 390.810939,1722.53727 383.797733,1715.31957 C379.877063,1711.28532 374.346628,1709.29947 370.486771,1705.11149 C364.689831,1698.8179 355.601817,1681.61734 368.032775,1677.28458 C379.912835,1673.14307 389.921992,1689.69301 399.483992,1693.32866 C411.618037,1697.94205 419.137425,1690.206 420.872394,1678.60192 C423.102811,1663.69107 420.650604,1648.11172 422.428499,1633.01677 C424.168833,1618.21674 429.334388,1605.92807 433.297985,1591.75901 C435.984503,1582.15151 439.272,1572.47965 427.082506,1570.34902 C415.903588,1568.39535 402.936042,1573.0427 391.599724,1573.66652 C373.919146,1574.6371 356.02751,1575.53082 338.4936,1578.18339 C318.917077,1581.14518 319.273014,1601.17884 314.357867,1617.55718 C302.442034,1657.26164 286.46244,1696.22075 279.021752,1737.15498 C275.812955,1754.80419 284.317876,1766.89266 294.216138,1780.77215 C306.609535,1798.14789 319.501958,1815.47893 333.537314,1831.57664 C342.90972,1842.32632 353.469774,1852.33779 367.118786,1857.28007 C382.579678,1862.87834 388.487513,1856.66162 384.920991,1841.41115 C380.211536,1821.27918 373.105321,1801.83359 373.942398,1780.8651 C374.248253,1773.23093 376.46794,1765.02657 370.966123,1758.63646 C367.150982,1754.20539 360.61355,1752.71109 355.635801,1750.01563 C347.427792,1745.56489 334.710654,1731.24926 350.702768,1728.1695 C361.563311,1726.0764 373.105321,1733.38526 383.61887,1734.73835 M752.922053,946.138239 C762.680802,957.041641 773.287361,967.474944 782.539928,978.803757 C787.844996,985.301112 791.602901,993.110449 797.296101,999.266403 C809.76462,1012.75266 822.186634,997.809637 833.227829,989.074404 C876.652115,954.717965 917.513299,917.487318 958.88603,880.716045 C978.598488,863.19553 999.568351,847.037047 1018.96601,829.184068 C1038.61587,811.100509 1054.97644,789.930036 1073.38499,770.659615 C1082.22617,761.407811 1092.80948,752.229292 1098.26837,740.41072 C1102.92416,730.33133 1103.95262,719.365368 1109.25769,709.398587 C1118.44408,692.139039 1135.29116,672.101805 1131.42772,651.22626 C1120.05205,663.161016 1101.10513,705.92916 1081.25674,685.872264 C1067.09081,671.556635 1081.55901,650.395099 1080.92942,633.703958 C1067.47894,639.414838 1070.97392,662.578309 1056.6345,666.676916 C1048.87901,668.893345 1042.24499,661.866907 1038.62839,655.705592 C1032.37535,645.05422 1034.66837,633.905939 1037.50871,622.605726 C1039.444,614.907209 1051.79626,589.509434 1039.57994,586.376047 C1028.99127,583.660921 1020.11968,603.147623 1016.61039,610.052515 C1010.17849,622.71476 1005.20074,635.811353 998.139238,648.198332 C985.962266,669.558274 971.937641,689.963721 958.565866,710.587236 C931.024587,753.06224 899.619874,792.929365 867.315482,831.85987 C832.811079,873.44294 795.460969,912.652286 752.922053,946.138239 M1058.84524,1081.23317 C1057.45369,1118.64792 1025.32816,1147.02179 997.534682,1167.82405 C962.014339,1194.41047 929.246692,1224.62898 886.883061,1239.75969 C870.57436,1245.58496 850.209053,1243.90655 843.67341,1262.27789 C841.12104,1269.45984 843.4391,1272.09989 846.206106,1279.32831 C850.534584,1290.63925 853.138824,1302.90647 855.193957,1314.81083 C862.180334,1355.31608 855.387129,1396.56311 831.068956,1430.28679 C818.14076,1448.21305 801.621001,1463.451 784.541402,1477.34659 C767.504729,1491.2082 751.3892,1507.37741 732.606828,1518.84386 C692.54516,1543.29965 648.042332,1557.34001 601.847462,1564.09834 C577.822624,1567.61424 553.699412,1570.74584 529.434898,1571.98632 C516.851907,1572.6298 504.247453,1572.74777 491.657307,1572.19545 C486.032075,1571.94878 465.114082,1567.1924 461.050322,1570.41873 C457.920225,1572.90149 456.526884,1587.93567 455.900865,1592.08254 C454.571915,1600.85173 453.523779,1609.50117 451.713689,1618.19529 C448.080987,1635.6461 443.181938,1655.39019 448.540665,1672.9965 C450.091404,1678.08714 451.345232,1682.23401 456.058264,1683.94459 C459.043482,1685.02957 464.33603,1683.12237 467.355232,1682.81135 C474.185999,1682.10889 480.633999,1681.83541 487.504115,1682.5629 C510.04797,1684.95092 532.185806,1690.71721 554.971126,1689.14605 C603.544869,1685.79638 652.168694,1682.37521 700.298858,1674.76965 C723.710197,1671.06964 746.173564,1664.06823 769.196771,1658.66121 C791.139647,1653.50801 813.071791,1648.30298 833.553359,1638.6204 C873.679417,1619.65027 910.764809,1594.55636 943.89197,1565.16008 C979.258492,1533.77616 1002.66983,1496.57411 1024.79336,1455.06075 C1044.22858,1418.59334 1060.61598,1381.68086 1059.76459,1339.6402 C1059.22443,1313.03412 1055.41465,1280.0701 1070.78432,1256.60633 C1077.80647,1245.88883 1091.97061,1235.95601 1105.16531,1241.62399 C1129.11503,1251.91072 1106.49068,1272.28221 1097.35617,1283.44121 C1084.19724,1299.51926 1085.96619,1324.00008 1084.60326,1343.66195 C1082.98991,1366.86296 1077.77964,1387.21299 1072.69994,1409.65076 C1067.72935,1431.61129 1077.75639,1457.66327 1078.74729,1480.06529 C1079.82404,1504.35842 1079.11575,1528.67658 1078.84567,1552.97865 C1078.3055,1601.31468 1080.54844,1649.52202 1080.3821,1697.84911 C1080.29445,1722.91442 1080.93478,1748.10306 1079.35006,1773.13441 C1077.90843,1795.95827 1073.23653,1817.79367 1069.14773,1840.20105 C1065.13405,1862.19733 1059.28524,1888.53708 1060.63744,1910.89621 C1115.51431,1889.99206 1168.92986,1865.29854 1224.65275,1846.62334 C1207.27266,1831.45867 1206.49998,1810.02723 1205.09769,1788.63869 C1203.25183,1760.43284 1198.61213,1732.4683 1196.5874,1704.26424 C1192.58982,1648.56216 1193.71308,1589.96442 1198.44758,1534.3249 C1203.53264,1474.58856 1212.54732,1415.05242 1214.40213,1355.06405 C1215.29465,1326.16646 1213.06066,1297.19559 1208.35836,1268.68051 C1204.39476,1244.65549 1200.95523,1214.42447 1188.43663,1193.1396 C1176.47429,1172.80029 1154.4867,1159.87887 1136.13718,1146.0244 C1109.3042,1125.76552 1084.45122,1102.98277 1058.84524,1081.23317 M1062.16851,299.911522 C1069.03862,309.208013 1076.80127,317.789526 1085.01643,325.911666 C1093.49273,334.292985 1097.10218,332.441194 1107.2437,328.081621 C1127.41047,319.408949 1127.02412,309.37782 1115.7665,291.987788 C1089.65613,251.654141 1079.75071,203.621977 1052.12179,164.112341 C1024.89889,125.185411 985.302262,93.7335673 943.732782,71.2868603 C899.122636,47.1992808 850.779625,39.5347259 800.497743,40.2532779 C774.802328,40.6214912 748.94057,42.3964219 723.406131,45.2777797 C698.565679,48.0787026 676.470769,56.2365917 652.424468,62.3961197 C640.320829,65.4955455 627.836213,68.0676758 616.068836,72.327152 C605.743092,76.0629075 596.460118,81.832773 586.027056,85.3236488 C563.189867,92.9596046 540.207799,101.494644 519.604604,113.983507 C499.45751,126.197104 481.308311,139.2222 463.012446,154.21527 C444.063731,169.742786 427.608363,187.788809 407.117852,201.421635 C388.462472,213.837213 373.6276,230.558741 356.714343,245.106738 C339.04092,260.305364 322.74295,278.930519 309.485647,298.136592 C296.523467,316.917253 291.588645,341.217539 283.758036,362.396949 C274.643193,387.047573 265.601683,413.399842 262.16752,439.535831 C255.767812,488.238286 270.130487,545.16119 288.392369,590.231561 C306.453924,634.808598 335.726594,672.001708 370.654902,704.638627 C387.682631,720.554018 406.262888,735.00013 427.078929,745.642565 C444.8865,754.747799 468.106455,771.118988 487.489806,759.679354 C495.338302,755.048089 501.707602,749.662524 510.781307,747.576578 C520.697455,745.299376 530.413277,746.230634 538.417383,738.953954 C545.22132,732.771189 548.474833,725.306828 557.409024,721.57286 C568.001274,717.145364 580.528817,716.339227 591.870501,716.374976 C617.342338,716.458986 642.826696,722.840157 667.134137,729.914856 C689.409697,736.397911 708.052556,746.173436 731.71788,740.24985 C749.303661,735.847378 777.510309,724.143203 781.300409,703.966548 C784.689858,685.934825 771.614994,662.622996 765.031058,646.484174 C755.930524,624.185825 747.686742,602.246752 741.97029,578.802652 C737.43791,560.225758 730.322751,530.505947 743.113223,513.527027 C755.680116,496.843036 784.736362,497.045017 802.788974,501.240145 C814.618953,503.989232 825.495594,509.528518 837.332728,512.318716 C849.391651,515.164325 861.867324,516.592492 874.169501,517.986697 C916.796059,522.812793 977.443035,511.904029 975.173268,457.38881 C973.152119,408.802539 946.399625,360.098297 962.066209,311.453041 C968.451607,291.624937 981.494275,268.693833 1003.21357,263.460201 C1020.43984,259.307971 1043.72061,263.660394 1058.91857,272.678044 C1071.11343,279.9154 1083.19918,295.072915 1062.16851,299.911522 M206.133413,516.926743 C163.163438,525.317 134.745732,570.644763 126.870407,610.840777 C123.302096,629.054819 122.041114,650.745438 128.943426,668.369624 C136.899239,688.687487 159.384069,697.165328 179.225308,701.426592 C201.906887,706.299161 222.005689,704.395534 239.986756,688.658888 C247.890699,681.737909 254.587318,673.676542 260.267998,664.869811 C266.07567,655.862887 274.154898,649.299397 268.313242,639.232519 C253.836095,614.290542 241.482048,589.786488 231.946878,562.345666 C227.691734,550.099895 223.910577,538.13654 221.086335,525.526131 C218.845185,515.511089 217.759488,509.399822 206.133413,516.926743 M582.467689,789.020228 C574.152362,797.033334 564.599305,803.41808 553.867543,807.724029 C542.0948,812.448241 538.522912,810.179976 539.106004,823.80744 C539.753487,838.857708 539.860805,850.901498 533.006786,864.904325 C529.797989,871.458878 517.946547,880.304933 520.185908,887.678134 C523.398282,898.263371 556.312596,908.963004 565.913946,912.66301 C588.887071,921.519789 615.691435,921.700321 637.37496,909.188221 C662.562406,894.652736 664.791035,868.302254 655.302369,842.802595 C654.290006,840.082107 650.609012,835.483016 651.514057,832.514074 C653.175691,827.067736 660.020767,827.85421 663.946803,829.933006 C672.473188,834.448087 676.036133,848.177435 677.871264,856.746436 C682.773891,879.634642 673.768154,904.424686 656.649205,920.195294 C647.951112,928.2084 637.070894,933.561792 625.974252,937.420881 C619.674708,939.612286 613.067519,941.344318 606.413827,942.014609 C601.039003,942.554417 594.252952,940.859921 589.121381,942.391759 C580.076294,945.08901 579.672065,956.255166 577.409452,964.41663 C573.370732,979.003951 571.684057,994.794221 571.154623,1009.8856 C570.296082,1034.29492 573.200812,1065.39464 587.230802,1086.08786 C619.966254,1134.37027 683.276495,1151.12933 732.705202,1175.97658 C758.981922,1189.18578 783.34481,1205.7804 806.740051,1223.51898 C809.050957,1225.27067 812.508373,1228.70614 815.282534,1230.07174 C824.660305,1234.68871 816.471971,1233.00851 822.474603,1229.95735 C827.096415,1227.60865 831.052858,1222.50729 835.828492,1219.84757 C846.828548,1213.72022 859.182595,1210.41345 870.370457,1204.62392 C896.384248,1191.1609 919.398512,1174.45367 942.486109,1156.62393 C966.14249,1138.3509 990.102937,1121.6687 1011.68272,1100.87002 C1020.78326,1092.10261 1031.0303,1084.87419 1040.2614,1076.48215 C1049.56048,1068.02754 1037.65895,1064.517 1029.78542,1058.29491 C1002.98463,1037.11372 976.520104,1015.26044 947.902072,996.538765 C938.354381,990.291652 929.935313,981.869222 919.97445,976.347811 C909.573584,970.583308 903.401032,975.74723 895.207332,983.07932 C886.253465,991.090639 877.718137,998.944663 867.751907,1005.79951 C854.59119,1014.85469 839.291274,1019.21426 826.059012,1027.83331 C834.553201,1036.73299 855.267291,1039.71087 858.272184,1053.18998 C861.320004,1066.8514 840.992258,1077.51171 831.491072,1082.78824 C814.713751,1092.1044 796.208616,1097.76165 777.513886,1101.80306 C761.958197,1105.16524 738.897429,1100.1032 726.430699,1111.85385 C722.876697,1104.3305 719.544485,1100.39992 725.395084,1093.20367 C731.23674,1086.01815 741.653703,1084.78124 749.899274,1082.01786 C772.169469,1074.54992 794.103402,1064.60101 815.650991,1055.27414 C812.790977,1048.57659 805.643623,1043.9918 800.193677,1039.63044 C792.414938,1033.4012 785.877506,1026.49988 779.545766,1018.75668 C767.461802,1003.98168 756.628089,988.223581 745.121851,973.016017 C740.131582,966.420353 735.579526,959.833626 726.466471,963.485372 C718.423016,966.709919 710.569155,975.071576 702.838709,979.400763 C685.35488,989.19595 670.058542,998.599686 650.812915,1004.8325 C643.057428,1007.34386 611.303933,1014.49363 619.74983,995.067699 C622.253908,989.310346 630.619316,986.938409 635.774139,984.419902 C645.296789,979.765401 654.789033,975.019741 663.964689,969.703886 C682.813241,958.786185 699.434952,944.679686 717.069025,931.979905 C736.522132,917.971715 756.306136,904.374638 774.569806,888.806011 C756.397356,876.758646 736.237741,867.937616 717.444637,856.918031 C698.451207,845.780475 679.314686,835.713597 659.668407,825.8201 C644.025076,817.94284 628.12597,809.543646 613.86167,799.362372 C608.191722,795.313814 588.684956,778.488614 582.467689,789.020228 M1153.87499,397.202035 C1151.4836,397.804404 1149.11724,398.487207 1146.77235,399.250445 C1162.70365,423.625803 1145.1143,453.8032 1150.10099,480.180494 C1164.80887,471.475647 1166.73522,437.617905 1189.06623,443.87753 C1213.1179,450.619764 1201.15019,480.246629 1208.4299,497.193375 C1219.79842,487.24983 1233.07003,496.542745 1237.75981,508.338081 C1242.83772,521.120084 1235.7959,532.918994 1238.16404,545.568727 C1240.61267,558.658171 1247.91921,550.067721 1251.97045,542.349543 C1257.13243,532.50967 1261.64513,519.20752 1259.74204,507.95378 C1257.42755,494.263756 1248.24474,481.537163 1242.55512,469.103711 C1236.90306,456.748906 1231.5497,444.142071 1223.36852,433.181472 C1207.87364,412.425686 1180.96196,393.779082 1153.87499,397.202035 M1307.94017,689.518648 C1297.54109,663.538166 1282.14995,639.74909 1272.31429,613.563052 C1269.43818,605.905647 1267.832,593.6992 1260.22675,588.982139 C1255.22933,585.882713 1248.57743,587.743441 1243.06667,586.075757 C1237.572,584.415222 1231.78043,580.454249 1227.84008,576.369942 C1220.63013,568.896644 1218.29239,558.638509 1209.79105,552.13043 C1198.81782,543.729449 1190.33973,540.508477 1185.12052,526.473475 C1181.02277,515.450316 1181.01383,513.83268 1168.69555,516.292201 C1155.24687,518.978728 1144.32372,515.689833 1135.04611,505.176094 C1119.33482,487.376739 1117.59806,462.298916 1125.30883,440.812065 C1128.9147,430.764849 1135.18921,419.074973 1129.97715,408.554085 C1125.13533,398.780347 1113.37869,391.764634 1105.92906,383.974959 C1087.09839,364.286276 1072.3601,341.24435 1054.70278,320.586874 C1050.47625,315.644594 1046.15672,310.713039 1042.89784,305.046846 C1040.83019,301.448723 1039.60856,295.258809 1034.81325,294.239966 C1026.55873,292.486485 1015.0364,306.769941 1010.88321,311.973187 C980.489067,350.045719 1002.23519,401.901223 1005.93586,444.823087 C1007.82108,466.679938 1012.05655,492.885637 1002.37113,513.466254 C993.243766,532.860009 970.143648,542.540799 950.674444,547.940664 C924.415611,555.224493 896.21254,554.902754 869.492241,550.48062 C855.498023,548.165882 842.065435,544.210271 828.817074,539.200068 C815.262859,534.073682 801.163112,525.254439 787.349546,534.558079 C769.518723,546.569695 775.027695,570.664424 778.942999,588.22605 C785.340918,616.914508 796.510894,643.674314 806.393058,671.233108 C814.692287,694.380492 821.412159,723.421076 803.964102,744.133963 C786.537509,764.820039 757.635086,777.7647 730.735924,776.692234 C674.968323,774.466868 624.060421,732.853412 567.071187,749.87523 C577.777909,754.304513 589.098129,756.908817 599.559808,761.979792 C612.189304,768.099997 623.881558,776.234649 636.142596,783.043019 C659.677351,796.109226 683.29617,808.987751 706.299702,822.987004 C727.083548,835.634949 746.733404,849.491206 766.569278,863.506545 C791.288103,880.971649 804.30573,861.627943 820.163697,842.761484 C854.780784,801.582376 887.734448,757.974133 919.185665,714.333717 C946.530195,676.393455 971.910812,636.781935 991.685872,594.39809 C998.761681,579.231638 1010.67572,553.504973 1031.37908,556.497153 C1049.75901,559.151505 1060.47826,581.34797 1069.98123,594.930748 C1076.61167,590.17615 1082.29593,583.818216 1091.24801,586.435033 C1098.6726,588.603201 1103.80774,596.226644 1107.09345,602.729361 C1109.35249,607.197968 1110.8925,622.262537 1114.67008,624.529014 C1117.35659,626.141287 1127.62868,622.675436 1132.20756,623.733602 C1147.87594,627.358536 1152.88588,647.513741 1152.72669,661.504056 C1152.5049,680.78699 1144.45429,700.082435 1137.85605,717.938989 C1123.06768,757.966983 1097.73178,789.250808 1069.80058,820.881396 C1041.45442,852.980294 1011.7811,882.074501 979.809389,910.55919 C971.919755,917.589203 964.107032,924.697863 956.415936,931.944156 C950.107449,937.885616 940.117967,944.066593 935.181356,951.046557 C926.04505,963.960832 950.486638,969.823644 959.581806,974.549643 C998.715176,994.887168 1034.77569,1021.67021 1069.23895,1048.98055 C1104.77897,1077.14707 1140.51752,1105.42263 1174.66778,1135.26578 C1208.07576,1164.46008 1239.62892,1195.57767 1274.80943,1222.72714 C1310.95221,1250.6184 1348.8246,1276.37188 1385.96544,1302.91183 C1423.14384,1329.47859 1459.31882,1357.42883 1496.45072,1384.02956 C1532.74017,1410.02434 1571.69468,1432.30839 1609.86577,1455.38964 C1629.83221,1467.4656 1649.90419,1479.36461 1669.96364,1491.28506 C1686.1847,1500.92296 1703.79015,1515.90351 1723.01968,1517.12255 C1740.3479,1518.22004 1756.78002,1524.60121 1767.13795,1505.74726 C1774.99897,1491.43521 1771.74188,1471.74653 1764.85924,1457.84201 C1756.45806,1440.87203 1743.31523,1425.26944 1732.75697,1409.56497 C1720.61577,1391.50643 1709.34563,1372.92596 1697.36183,1354.77448 C1685.87169,1337.37194 1673.10089,1321.3064 1660.2818,1304.90661 C1647.28564,1288.27803 1637.42494,1269.53491 1625.84179,1251.9286 C1601.0854,1214.29041 1575.62966,1177.33146 1552.15751,1138.8496 C1498.32878,1050.59461 1450.11992,959.485075 1404.05025,867.006358 C1399.99186,858.857406 1305.28942,690.966476 1307.94017,689.518648 M1232.15067,1232.12015 C1261.08172,1332.1955 1244.39562,1433.95999 1238.46453,1535.76737 C1235.46679,1587.24215 1235.01069,1639.03866 1233.67995,1690.58315 C1233.03247,1715.63953 1233.07718,1740.71556 1234.11638,1765.76121 C1234.64044,1778.36089 1235.56159,1790.91768 1236.45769,1803.49413 C1237.25005,1814.61381 1234.26841,1826.90784 1235.67069,1837.63786 C1237.46647,1851.38151 1264.7323,1854.07876 1256.35438,1871.71725 C1250.73451,1883.55012 1231.05604,1885.35722 1220.51387,1890.34598 C1225.20007,1895.77801 1232.53344,1903.9073 1240.35153,1904.41851 C1247.39335,1904.87789 1252.83078,1898.76662 1259.14463,1896.45545 C1264.7484,1894.40347 1272.45738,1892.41226 1275.99708,1898.95966 C1279.70132,1905.81451 1271.94226,1913.43259 1268.87298,1918.74487 C1279.30783,1920.76468 1286.52494,1914.53008 1295.93669,1915.10206 C1305.84032,1915.70443 1306.28926,1925.45671 1312.79808,1931.09967 C1320.24055,1937.55234 1333.23672,1938.94118 1342.41238,1941.65631 C1353.0869,1944.81293 1363.81509,1948.72922 1373.53627,1954.21131 C1390.91636,1964.01186 1405.84245,1982.5244 1412.26541,2001.47308 C1418.9209,2021.11172 1408.52718,2038.10851 1393.04662,2050.15945 C1387.27829,2054.64772 1379.00947,2059.86527 1371.35951,2057.44507 C1362.61671,2054.67811 1361.25019,2047.55693 1350.59534,2048.08602 C1341.02619,2048.55969 1331.94175,2052.38482 1322.32252,2052.87458 C1308.18342,2053.5967 1294.05684,2051.01921 1279.90165,2051.56259 C1222.78364,2053.75757 1165.65847,2054.24555 1108.63525,2048.74916 C1093.88086,2047.32814 1079.41982,2046.16452 1064.8747,2045.69978 C1053.56521,2045.33872 1052.61903,2036.89662 1050.70341,2026.30066 C1046.07444,2000.70627 1056.31075,1975.51048 1051.24179,1950.64 C1051.57805,1952.28087 1043.57215,1948.01067 1042.60808,1947.19917 C1036.72887,1942.24795 1034.76495,1935.21258 1033.01568,1927.90372 C1028.35273,1908.43847 1028.40102,1888.60501 1029.84265,1868.75367 C1033.11942,1823.69402 1041.49735,1779.05263 1040.81051,1733.75526 C1040.46352,1710.92425 1041.15393,1688.14687 1041.16108,1665.3248 C1041.16645,1644.35988 1043.06239,1623.67023 1043.23947,1602.85188 C1043.62581,1557.20774 1048.42649,1512.07481 1049.76617,1466.47893 C1040.27214,1475.7218 1035.23715,1488.60748 1029.20769,1500.14184 C1021.79025,1514.32342 1013.51785,1528.35663 1004.45846,1541.55332 C985.754785,1568.80467 960.658559,1590.98148 934.660866,1611.08663 C885.04793,1649.45409 831.147655,1679.16675 770.362955,1695.43963 C704.561157,1713.0531 638.015289,1724.94674 570.178033,1731.6282 C554.482831,1733.17434 538.612343,1734.01086 522.881369,1732.48081 C512.580666,1731.47984 495.837328,1723.15215 486.049962,1727.37766 C474.92649,1732.18052 472.688918,1743.73098 458.102665,1740.49213 C452.538246,1739.25522 448.506681,1735.53376 443.634461,1733.02777 C436.465644,1729.3367 436.181252,1731.88381 429.337965,1732.3539 C421.707682,1732.87762 417.134163,1729.06501 410.484048,1735.21202 C404.837352,1740.43315 405.384672,1744.09025 410.543073,1748.97712 C417.792378,1755.84448 429.39699,1756.99738 436.65345,1764.1686 C443.71316,1771.14499 442.448601,1779.71935 431.543342,1779.82302 C420.568327,1779.92669 410.816733,1772.11021 400.093914,1771.09136 C402.379779,1802.83814 411.923893,1838.30636 401.340587,1869.45434 C396.430806,1883.90403 385.894004,1893.21303 370.182704,1893.11294 C343.891676,1892.94492 320.829119,1868.73937 304.996193,1849.88542 C296.242653,1839.46284 289.147169,1827.7533 280.695907,1817.07333 C272.05505,1806.15563 262.788173,1795.17716 257.840831,1781.97332 C252.57869,1767.92402 254.115121,1753.82824 257.057412,1739.40715 C260.699057,1721.55775 264.083139,1703.52781 268.48495,1685.84822 C277.01849,1651.56506 294.18752,1620.27051 302.855207,1586.09103 C306.13376,1573.15888 306.092622,1557.98349 314.36681,1546.89599 C323.127505,1535.15427 336.756843,1534.40176 350.275286,1535.15249 C367.006103,1536.08196 383.724399,1537.93375 400.369362,1539.82844 C410.877546,1541.02424 433.907907,1548.61014 442.461121,1542.14496 C445.405202,1539.9196 445.410567,1534.08717 448.853674,1532.07451 C452.173366,1530.13335 457.53567,1531.52755 461.163005,1531.79746 C479.133341,1533.13089 497.259287,1534.7521 515.265395,1535.27761 C582.190452,1537.23664 652.810811,1526.79798 712.563474,1495.68396 C740.292558,1481.245 761.414454,1458.51409 783.700747,1437.04511 C805.615005,1415.93541 824.715753,1393.21165 830.611067,1362.56594 C835.994835,1334.58531 833.957588,1301.1226 825.016242,1274.04105 C816.307417,1247.65839 785.394577,1231.67866 762.897226,1218.67143 C731.696417,1200.63256 698.576411,1185.68239 664.962743,1172.73237 C659.627269,1170.67681 653.141707,1168.05999 647.273222,1169.11101 C640.079364,1170.39975 635.244706,1176.63793 628.701908,1179.39238 C620.919592,1182.66697 611.375478,1182.68306 603.16568,1184.59562 C595.204502,1186.44742 587.447226,1188.99631 579.337591,1190.22071 C553.803152,1194.07622 517.919717,1190.99824 496.817496,1174.67532 C462.322036,1147.99773 483.164906,1110.238 494.24545,1077.76732 C482.529944,1077.3705 472.772983,1080.11244 461.590487,1075.09509 C450.44913,1070.09561 441.738516,1061.24241 436.658815,1050.1549 C427.41698,1029.98003 432.756031,1006.7969 435.481899,985.758697 C436.714263,976.247714 438.121912,966.810016 441.747459,957.874589 C444.555604,950.955398 449.168473,944.361521 450.871246,937.04373 C452.747515,928.984151 450.314983,928.514053 443.5969,924.660326 C433.240749,918.718866 425.789329,911.883685 419.450435,901.455744 C407.035575,881.028847 406.726143,858.732285 416.899853,837.243648 C421.019061,828.545951 430.8422,816.589746 429.724309,806.431708 C428.763816,797.6929 418.879863,790.888105 413.059671,785.164713 C395.089335,767.495841 375.979644,751.18185 356.050762,735.766943 C346.735593,728.561761 336.476028,722.023296 328.012245,713.838595 C321.809287,707.843512 315.507954,694.800541 307.026285,691.647492 C298.535672,688.490868 292.881822,697.98219 286.966833,703.067464 C277.746461,710.994773 268.912432,720.117882 258.865714,726.990599 C240.845297,739.316805 218.501769,737.011004 198.152559,733.073267 C176.894727,728.958574 157.178692,721.714068 139.054534,709.761438 C131.853522,705.012202 123.443398,695.367161 114.577174,694.594985 C105.106394,693.770974 94.8182113,703.192585 88.0500467,708.848054 C70.3802006,723.615907 65.0751329,746.552373 54.7833731,766.391201 C43.2914446,788.546555 38.4102815,811.542007 41.5368015,836.448236 C44.3503118,858.855619 52.9732826,875.78449 65.8031041,893.884136 C68.4538493,897.628829 74.6657509,904.699952 70.1262155,908.83967 C64.5725287,913.90707 53.1914951,903.747245 49.4622078,900.4655 C12.4179539,867.860756 -8.63597454,818.731102 3.3889648,769.547825 C9.84411965,743.140145 22.4718263,718.707589 37.1349905,695.985616 C43.3701442,686.320913 49.4532646,676.656209 60.2977102,671.728229 C72.6410251,666.117446 86.6280883,666.78595 99.8138465,665.440005 C90.6936374,620.762872 87.8389887,572.148002 115.863197,533.210348 C137.367859,503.329666 181.407433,477.18474 216.3107,501.415315 C214.879799,468.476318 210.18823,437.197856 218.947137,404.768281 C222.873173,390.234583 228.249786,376.092336 234.858762,362.566756 C241.333592,349.31108 250.274939,338.071639 255.506673,324.272581 C276.143851,269.848522 315.740476,221.231864 358.03435,182.170876 C400.787901,142.686264 442.73657,94.5164673 496.588552,69.8140074 C552.772903,44.0390818 609.989292,20.8773977 670.904562,9.16607231 C734.130738,-2.99032635 799.118712,-5.48559654 862.811719,6.02374782 C918.6455,16.1138626 970.318934,50.0395274 1012.56809,86.6141825 C1060.77874,128.349185 1091.90085,178.663913 1116.52131,236.945274 C1121.93011,249.746939 1127.14575,262.659426 1133.77798,274.894473 C1141.13818,288.470101 1150.59107,301.09481 1156.00346,315.662469 C1160.82917,328.653603 1161.64121,342.745802 1153.04507,354.353456 C1147.0013,362.51492 1134.60254,364.357773 1129.31714,371.822135 C1126.64851,375.586489 1126.91681,379.166737 1132.78171,380.289251 C1138.838,381.445727 1141.72485,374.687406 1146.08015,371.975855 C1156.91566,365.224683 1172.20842,370.976674 1183.16555,374.810739 C1209.14714,383.901673 1229.48562,400.228176 1245.03416,422.860777 C1259.91374,444.519222 1269.79591,469.12516 1279.61905,493.346798 C1285.81843,508.627646 1291.71911,523.808398 1295.13181,539.997268 C1296.41604,546.088873 1298.20646,562.599482 1288.58901,555.363914 C1284.68802,552.43072 1279.11465,574.689746 1280.16637,578.234245 C1283.82411,590.562238 1296.86678,602.119843 1304.54178,612.099137 C1322.59081,635.562899 1334.67656,661.847245 1347.4098,688.381834 C1374.98506,745.846334 1405.694,801.632424 1435.1974,858.103105 C1495.27917,973.100027 1560.93967,1083.68018 1629.81075,1193.59719 C1663.93418,1248.05521 1699.11289,1301.58376 1735.59015,1354.49564 C1751.68601,1377.84322 1767.83015,1401.2051 1783.57544,1424.7904 C1796.95616,1444.833 1810.16159,1467.15101 1806.71848,1492.16627 C1803.56692,1515.07057 1789.96799,1533.46872 1767.9804,1540.95989 C1756.19871,1544.97448 1742.21165,1549.60217 1729.60004,1548.36884 C1715.81151,1547.02111 1703.64527,1537.78896 1692.15156,1530.85726 C1639.33161,1499.00146 1586.50451,1467.17604 1533.65237,1435.37743 C1474.54362,1399.81625 1420.48416,1357.59149 1364.08875,1318.05147 C1335.39559,1297.9338 1305.80633,1279.80198 1275.90765,1261.59151 C1269.17525,1257.49112 1238.62729,1228.10913 1232.15067,1232.12015" id="ink-shape"></path>
                <path d="M720.345478,1333.3596 C705.907962,1354.6352 690.726152,1374.62815 670.402434,1390.76961 C648.993661,1407.77269 626.603854,1421.5496 602.70035,1434.74381 C560.542803,1458.01267 504.035622,1478.61675 455.070025,1468.06955 C441.145445,1465.07078 418.868627,1452.87853 430.974619,1435.46863 C437.058103,1426.72105 450.111052,1429.0021 459.351063,1429.48354 C474.235155,1430.26165 487.254028,1431.10905 501.515783,1426.09749 C527.722115,1416.88446 554.111383,1408.1955 579.700759,1397.35162 C604.486656,1386.84528 626.22543,1372.4377 648.964965,1358.28417 C670.291239,1345.00824 686.559898,1329.12082 705.294592,1313.07352 C710.425739,1308.67841 719.247868,1300.98785 724.101026,1309.53469 C727.609073,1315.70987 722.268089,1327.32121 720.345478,1333.3596" id="ink-shape"></path>
                <path d="M1262.78624,320.262915 C1258.11863,328.370955 1247.74729,344.105345 1236.42918,337.321712 C1221.99217,328.668208 1240.71604,301.02848 1244.23883,290.612828 C1259.58873,245.233785 1260.67634,196.621925 1253.16741,149.700504 C1249.43227,126.372764 1242.6639,103.593666 1240.11636,80.069321 C1239.62125,75.4983158 1237.33673,63.7774225 1243.06927,61.1005796 C1249.95431,57.8862248 1256.85372,69.0295624 1259.09755,73.9285961 C1267.77216,92.8715268 1271.11637,117.753998 1275.75826,138.018656 C1281.95917,165.074489 1286.05752,192.757292 1286.10794,220.582009 C1286.16339,254.191569 1279.73885,290.808346 1262.78624,320.262915 Z" id="ink-shape" transform="translate(1258.571703, 199.752473) rotate(-20.000000) translate(-1258.571703, -199.752473) "></path>
                <path d="M1330.89203,163.379724 C1329.50264,171.711969 1328.86997,195.52975 1315.52863,192.80655 C1300.40316,189.719295 1308.82328,152.714457 1308.25188,141.89101 C1307.94872,136.184298 1304.6776,110.346656 1312.23573,107.732436 C1327.97384,102.290959 1330.2977,156.051076 1330.89203,163.379724" id="ink-shape" transform="translate(1318.658158, 150.184271) rotate(-20.000000) translate(-1318.658158, -150.184271) "></path>
                <path d="M616.028611,1279.09493 C601.536317,1292.3092 584.710336,1291.5336 566.415663,1290.27596 C557.125963,1289.63808 535.612782,1284.13273 550.562803,1272.60196 C558.372999,1266.57833 619.645377,1262.43573 616.028611,1279.09493" id="ink-shape"></path>
                <path d="M1745.35923,1521.06401 C1746.38991,1519.01309 1755.08693,1509.16981 1756.96164,1513.15122 C1758.73103,1516.90474 1747.65514,1520.95284 1745.35923,1521.06401" id="ink-shape"></path>
                <path d="M592.59653,790.491245 C590.813263,794.170329 583.369301,790.958716 580.803562,791.516084 C584.288007,784.04779 588.430916,785.647978 592.59653,790.491245" id="ink-shape"></path>
                <path d="M1152.76255,399.866089 C1151.98748,402.815385 1151.2139,405.766518 1150.44181,408.717651 C1149.25089,406.506597 1148.05847,404.297379 1146.86606,402.086325 C1148.83056,401.348083 1150.79804,400.606167 1152.76255,399.866089" id="ink-shape"></path>
                <path d="M1166.99623,957.322015 C1185.59657,959.20067 1204.25944,960.150754 1222.93481,960.724389 C1238.69679,961.208393 1245.17199,958.225491 1247.1851,941.830283 C1249.56976,922.391223 1250.38609,902.77828 1252.77075,883.333843 C1253.85143,874.499863 1262.41477,856.84445 1252.1009,852.115545 C1243.45717,848.153878 1229.97268,853.82928 1220.91991,854.496131 C1210.83467,855.241857 1195.61393,852.162153 1186.70048,858.145884 C1177.16899,864.543708 1179.24284,886.944159 1177.61913,897.457815 C1174.52353,917.499191 1170.79203,937.406122 1166.99623,957.322015 M1158.12386,862.914226 C1141.26512,864.188772 1124.34922,865.194426 1107.53871,866.992413 C1100.05784,867.79371 1084.91391,871.497241 1078.60841,866.0495 C1063.80387,853.262816 1119.12976,848.775914 1125.40669,847.766674 C1135.98314,846.06728 1154.08512,848.324176 1160.86756,838.330377 C1167.57498,828.44772 1165.87981,811.839191 1167.61427,800.364696 C1170.22222,783.094694 1173.20706,765.849789 1174.94867,748.466853 C1175.53277,742.624738 1174.69859,723.325502 1180.86298,720.459119 C1195.03161,713.867693 1190.58024,781.791467 1190.34624,786.889649 C1189.94791,795.655511 1189.51027,804.462602 1188.29026,813.154966 C1187.60076,818.054169 1185.18216,824.681447 1186.67369,829.603953 C1190.94643,843.717169 1215.21637,835.576928 1226.26976,834.451169 C1238.65927,833.18738 1257.79193,837.991574 1261.89319,822.693443 C1267.04655,803.467704 1266.29632,781.633718 1268.20584,761.854062 C1268.73457,756.383017 1270.11535,715.531235 1280.18808,718.696984 C1291.43617,722.233803 1287.04554,756.372262 1286.94373,765.161427 C1286.82762,775.081729 1286.86692,785.005616 1286.1935,794.907992 C1285.59152,803.802922 1283.08719,814.707366 1284.94133,823.519836 C1288.19411,838.972131 1306.49972,830.754808 1311.81207,843.04494 C1316.86004,854.727378 1289.3391,845.568935 1284.20003,849.582588 C1276.52624,855.575282 1278.37324,880.612662 1277.27647,889.378523 C1274.87038,908.634736 1270.24932,928.63309 1268.74707,947.83194 C1267.56278,962.986662 1279.73794,960.975354 1292.12567,959.878277 C1302.75036,958.937157 1314.42358,956.41137 1325.07149,957.829324 C1333.62947,958.967631 1345.58314,966.855114 1333.12575,972.105668 C1313.65013,980.31582 1273.99511,963.542371 1264.20997,988.477572 C1262.36476,993.18138 1253.77641,1047.73049 1242.98382,1020.80191 C1238.4735,1009.54611 1249.51796,991.887116 1237.74114,983.26287 C1233.65774,980.271005 1227.57373,980.799825 1222.83657,980.468192 C1211.17049,979.654347 1199.42939,979.376492 1187.74187,979.13449 C1176.08651,978.89428 1165.61366,976.545962 1161.11228,989.321891 C1157.60585,999.276253 1157.99525,1010.41553 1155.19439,1020.60114 C1153.09375,1028.23765 1146.19342,1041.60515 1139.03765,1029.11245 C1134.338,1020.90767 1137.93553,1006.56859 1138.86438,997.64677 C1139.32703,993.179587 1141.98856,983.935099 1138.6018,980.183167 C1134.96676,976.155173 1125.23699,978.334986 1120.63915,978.698886 C1107.36187,979.751148 1082.63821,986.147179 1072.47617,974.097257 C1063.97535,964.01562 1081.64862,963.822018 1088.59718,963.140827 C1095.75474,962.438124 1102.91586,961.789199 1110.06984,961.036303 C1117.94368,960.206324 1128.3701,961.31595 1135.7813,958.845734 C1148.22797,954.695842 1147.3402,937.761059 1148.15831,926.775946 C1149.75701,905.316616 1154.5817,884.120799 1158.12386,862.914226" id="ink-shape"></path>
                <path d="M1376.82895,908.744965 C1375.82454,921.135142 1374.48193,935.025532 1370.4847,946.799871 C1367.45958,955.700891 1361.35325,958.404137 1359.27136,947.071985 C1357.95254,939.889585 1366.72199,899.412499 1376.82895,908.744965" id="ink-shape"></path>
                <path d="M590.909282,827.165666 C585.945095,823.599676 562.43362,804.836999 579.427189,804.094848 C588.104874,803.715527 606.799086,817.999643 607.335358,825.92325 C607.471263,827.924309 603.195781,828.959655 603.429023,830.894745 C603.87163,834.579846 609.322502,836.326191 611.078241,839.254481 C614.951519,845.717608 613.34454,858.482605 608.343623,864.62505 C596.938665,878.634295 584.275674,854.918448 593.103955,850.265803 C591.137013,851.302982 564.738486,837.872797 563.746751,834.840057 C558.317918,818.221372 589.575948,833.878009 590.909282,827.165666" id="ink-shape"></path>
                <path d="M632.351912,892.566945 C626.321607,892.755777 614.210102,892.33836 609.694393,888.02836 C601.296545,880.01958 617.674543,878.95616 622.465792,875.225907 C629.182316,869.998252 630.500349,852.99678 641.042852,863.51669 C651.499358,873.952122 642.302968,886.090352 632.351912,892.566945" id="ink-shape"></path>
                <path d="M545.424655,848.423214 C556.326943,846.823949 580.583104,870.343046 568.811681,871.90707 C561.022354,872.942481 547.124837,854.707839 545.424655,848.423214" id="ink-shape"></path>
            </g>
        </g>
    </g>
</svg>